<svg id="Logoround" xmlns="http://www.w3.org/2000/svg" viewBox="0 0 566.93 566.93">
  <rect x="0.01" y="0.03" width="566.9" height="566.9" rx="283.45" style="fill: #1f1f2e"/>
  <g>
    <path d="M327.3,222l.23.05a32.73,32.73,0,0,1,8.83.73c16.66-.43,25-11.37,25-11.37l-24.22-12.87c-8.81-4.68-25.68.68-32.1,3A84.05,84.05,0,0,1,327.3,222Z" style="fill: #fff"/>
    <path d="M283.47,70.35a212.36,212.36,0,0,0-140,52.46.9.9,0,0,0,1,1.49,175.14,175.14,0,0,1,233.79,90.56c15.35,37.2,6.46,82.27-25.29,49.07,0,0,20.3.25,24.81-7.27,0,0-15-11.79-21.05-19s-22.06-13.54-31.08-11.53c0,0-20.55-31.58-56.64-31.08s-13.53,17.54-64.16-11.53c0,0-9.52-7.52-13.53,0s-2,9-2,9-4.51,3.51-.5,12c.08.17.49,1.6.58,1.77l-2.62,8.58a.34.34,0,0,0,.58.32l5-5a33.87,33.87,0,0,1,8.58,19.14c-4,.83-8.46,1.68-14-1.65l1.17-7a.34.34,0,0,0-.56-.34L183.64,225c-3-3.43-2.36-7.13-3.4-7.39,0,0-10.53,9,0,25.56,9.21,14.47,31.09,16.28,49.84,32.46h0c23.65,23.59,19.44,47.08,18.41,52.09a.85.85,0,0,0,.94,1c3.09-.39,12.82-4.21,14.36-9.37h0c0,.1,18.14,39.74,2.77,59.28-5.38,6.85-19.77,9.22-22.31,10.29a.83.83,0,0,0-.46,1.07c1,2.54,10.42,12.13,16.26,13.15,0,0-8.57,10.2-19.77,13a.84.84,0,0,0-.44,1.34c2.95,3.61,19.92,14.64,34.61,6.5,0,0-6.67,28.91-59.69,31.67h0a278.13,278.13,0,0,1-31.62-2.18,130.9,130.9,0,0,1-38.42-10.7l-.28-.12a.9.9,0,0,0-1,1.49,212.31,212.31,0,0,0,140,52.45c118,0,213.68-96,213.12-214.16A212.93,212.93,0,0,0,283.47,70.35Zm-10,148.75c-11-4.33-25.16-8.09-25.1-9s1.75-2.48,10.14-4.22,15,9.34,16.12,11.19S275.26,219.8,273.48,219.1Zm71.87,99.24c-.11,1.35-.25,2.7-.45,4.06-.1.68-.22,1.36-.36,2.06l-.06.27a3.3,3.3,0,0,1-1.55,2.06,3.12,3.12,0,0,1-3,0,3.18,3.18,0,0,1-1.6-2.17l0-.07-.1-.42-.21-.85a31.1,31.1,0,0,0-2.51-6.54,42.23,42.23,0,0,0-8.82-11.24,70.62,70.62,0,0,0-11.85-8.78c-2.67-1.6-5.44-3.05-8.26-4.38l1.09,2.15c.32.59.56,1.21.83,1.83l.79,1.85c.52,1.23,1.06,2.46,1.47,3.74s.9,2.53,1.31,3.8l1.06,3.89a75.53,75.53,0,0,1,2.25,15.9,60.71,60.71,0,0,1-1.49,16c-.08.33-.16.66-.26,1l-.07.26,0,.12V343a2.56,2.56,0,0,1-.65,1.08,2.2,2.2,0,0,1-2,.53,2.24,2.24,0,0,1-1.59-1.38l-.08-.27-.06-.19a12.5,12.5,0,0,0-.55-1.54,28.69,28.69,0,0,0-1.7-3.16,68.29,68.29,0,0,0-4.37-6.15c-3.12-4-6.56-7.86-10-11.67q-2.61-2.85-5.3-5.64c-1.78-1.88-3.59-3.72-5.41-5.57,4.13,3.13,8.12,6.45,12,9.88s7.66,7,11.25,10.86a69.19,69.19,0,0,1,5.07,6.14l0,0a64.9,64.9,0,0,0,0-10.15,75.72,75.72,0,0,0-2.7-14.63l-1.11-3.56-1.32-3.49a36.59,36.59,0,0,0-1.46-3.42l-.77-1.7c-.26-.56-.5-1.14-.81-1.68-1.21-2.17-2.28-4.42-3.67-6.5l-1-1.58-.5-.79-.24-.4-.13-.2,0,0c0-.06.06.13-.23-.4a3.51,3.51,0,0,1-.16-2.7,3.44,3.44,0,0,1,3.32-2.29,3.86,3.86,0,0,1,1.05.18l.25.09.49.16.95.34,1.89.71a100.35,100.35,0,0,1,14.39,7.05,75.83,75.83,0,0,1,13,9.71,49.64,49.64,0,0,1,8.57,10.66,75.75,75.75,0,0,0-.34-8.38c-.26-2.48-.64-4.95-1.12-7.4-.29-1.21-.51-2.45-.86-3.65l-.48-1.82-.54-1.79a71.78,71.78,0,0,0-5.91-13.88,96.4,96.4,0,0,0-19-24,84,84,0,0,1,21.83,22.27,74.14,74.14,0,0,1,11.34,29.58A72.07,72.07,0,0,1,345.35,318.34Z" style="fill: #fff"/>
  </g>
</svg>
